<svg id="Layer_1" data-name="Layer 1" xmlns="http://www.w3.org/2000/svg" viewBox="0 0 939.55 181.06"><defs><style>.cls-1,.cls-2{stroke:#fff;stroke-miterlimit:10;}.cls-1{stroke-width:2px;}.cls-2{fill:none;}</style></defs><path class="cls-1" d="M192.94,557V587.7c-1.15.18-2.31.34-3.48.49h0a137.84,137.84,0,0,1-18.17,1.18A140.39,140.39,0,0,1,34.43,417.91,140.75,140.75,0,0,1,114.35,431,140.3,140.3,0,0,1,192.94,557Z" transform="translate(-29.95 -409.31)"/><path class="cls-1" d="M189.43,588.19a137.84,137.84,0,0,1-18.17,1.18A140.3,140.3,0,0,1,45.94,512.22C111.41,490.71,166.64,532.77,189.43,588.19Z" transform="translate(-29.95 -409.31)"/><path class="cls-1" d="M192.94,557v29.88a.27.27,0,0,1-.48.18c-6.35-7.75-22.55-75.22-108.17-106.36-38.38-14-49.86-62.83-49.86-62.83A140.75,140.75,0,0,1,114.35,431,140.3,140.3,0,0,1,192.94,557Z" transform="translate(-29.95 -409.31)"/><path class="cls-2" d="M192.94,557V587.7c-62.44-15.51-85.45-57.65-92.51-89.42S114.35,431,114.35,431A140.3,140.3,0,0,1,192.94,557Z" transform="translate(-29.95 -409.31)"/><path d="M327.12,514.54v62.4a13.28,13.28,0,0,1-26.55,0V512.56a32.41,32.41,0,0,0-64.35,0h.08v64.38a13.27,13.27,0,1,1-26.53,0V512.56a58.75,58.75,0,0,1,117.25,0C327.07,513.22,327.09,513.87,327.12,514.54Z" transform="translate(-29.95 -409.31)"/><path d="M461.3,533.36V471a13.28,13.28,0,0,0-26.55,0v64.37a32.41,32.41,0,0,1-64.35,0h.08V471A13.27,13.27,0,1,0,344,471v64.37a58.75,58.75,0,0,0,117.25,0C461.25,534.68,461.27,534,461.3,533.36Z" transform="translate(-29.95 -409.31)"/><path d="M904.36,458.82A65.7,65.7,0,1,0,943,577.65a13.27,13.27,0,0,0,26.52-.71V533.09c0-3.42,0-5.66,0-8.58C969.46,488.23,940.64,458.82,904.36,458.82Zm0,104.31A38.62,38.62,0,1,1,943,524.51,38.62,38.62,0,0,1,904.36,563.13Z" transform="translate(-29.95 -409.31)"/><path d="M645.37,472.73v.09c-.31,7.7-3.07,13.87-15,13.89h-.54c-13.11,0-26.15,6.6-33.31,24.45a23.88,23.88,0,0,0-1.7,8.88v56.45c0,7.29-6,13.71-13.26,13.72a13.28,13.28,0,0,1-13.28-13.27V472.85c0-7.34,6-13.77,13.34-13.73a13.26,13.26,0,0,1,13.18,12.81,58.6,58.6,0,0,1,35-11.57c.71,0,1.42,0,2.13,0h.17c.71,0,1.42,0,2.12.08a13.24,13.24,0,0,1,7.22,3.28h0A14.26,14.26,0,0,1,645.37,472.73Z" transform="translate(-29.95 -409.31)"/><path d="M551.07,577.75v.09a14.19,14.19,0,0,1-3.92,9h0a13.17,13.17,0,0,1-7.22,3.28c-.7.06-1.41.08-2.12.08h-.17c-.71,0-1.42,0-2.13,0a58.77,58.77,0,0,1-57.09-44.83c-.09-.39-.19-.78-.28-1.18V433.63A13.54,13.54,0,0,1,490.47,420a13.27,13.27,0,0,1,14.2,13.23v27.46h32.71A13.56,13.56,0,0,1,551,473a13.29,13.29,0,0,1-13.24,14.21H504.67v49.24a23,23,0,0,0,3.52,12.47,32.39,32.39,0,0,0,27.31,15h.55C548,563.88,550.76,570.05,551.07,577.75Z" transform="translate(-29.95 -409.31)"/><path d="M778.49,577.75v.09a14.19,14.19,0,0,1-3.92,9h0a13.14,13.14,0,0,1-7.22,3.28c-.7.06-1.41.08-2.12.08h-.17c-.71,0-1.42,0-2.13,0a58.77,58.77,0,0,1-57.09-44.83c-.09-.39-.19-.78-.27-1.18V433.63A13.53,13.53,0,0,1,717.89,420a13.27,13.27,0,0,1,14.2,13.23v27.46H764.8A13.56,13.56,0,0,1,778.46,473a13.29,13.29,0,0,1-13.24,14.21H732.09v49.24a23,23,0,0,0,3.52,12.47,32.39,32.39,0,0,0,27.31,15h.55C775.42,563.88,778.18,570.05,778.49,577.75Z" transform="translate(-29.95 -409.31)"/><circle cx="645.51" cy="17.45" r="17.45"/><path d="M688.74,472.39V576.93a13.27,13.27,0,0,1-26.54,0V472.39a13.27,13.27,0,0,1,26.54,0Z" transform="translate(-29.95 -409.31)"/><path d="M821.84,472.39V576.93a13.27,13.27,0,1,1-26.54,0V472.39a13.27,13.27,0,1,1,26.54,0Z" transform="translate(-29.95 -409.31)"/><circle cx="778.61" cy="17.45" r="17.45"/></svg>