<svg id="Layer_1" data-name="Layer 1" xmlns="http://www.w3.org/2000/svg" xmlns:xlink="http://www.w3.org/1999/xlink" viewBox="0 0 938.55 180.9"><defs><style>.cls-1{fill:url(#linear-gradient);}.cls-2{fill:url(#linear-gradient-2);}.cls-3{fill:#69bc70;}.cls-4{opacity:0.45;fill:url(#linear-gradient-3);}.cls-5{fill:#25403e;}</style><linearGradient id="linear-gradient" x1="30.72" y1="504.13" x2="192.71" y2="504.13" gradientUnits="userSpaceOnUse"><stop offset="0" stop-color="#209564"/><stop offset="0.38" stop-color="#207b5e"/><stop offset="0.74" stop-color="#206a59"/><stop offset="1" stop-color="#206458"/></linearGradient><linearGradient id="linear-gradient-2" x1="49.95" y1="518.55" x2="201.33" y2="582.81" gradientUnits="userSpaceOnUse"><stop offset="0" stop-color="#43c394"/><stop offset="1" stop-color="#22a2b3"/></linearGradient><linearGradient id="linear-gradient-3" x1="121.73" y1="482.48" x2="183.67" y2="560.78" gradientUnits="userSpaceOnUse"><stop offset="0" stop-color="#254343"/><stop offset="1"/></linearGradient></defs><path class="cls-1" d="M192.71,558.11v30.67c-1.14.18-2.31.34-3.47.49h0A140.39,140.39,0,0,1,34.2,419,140.25,140.25,0,0,1,192.71,558.11Z" transform="translate(-30.72 -409.55)"/><path class="cls-2" d="M189.2,589.27a140.37,140.37,0,0,1-143.49-76C111.19,491.79,166.41,533.85,189.2,589.27Z" transform="translate(-30.72 -409.55)"/><path class="cls-3" d="M192.71,558.11v30.67c-17.1-66.51-72.08-88.78-108.65-107S34.2,419,34.2,419A140.25,140.25,0,0,1,192.71,558.11Z" transform="translate(-30.72 -409.55)"/><path class="cls-4" d="M192.71,558.11v30.67c-62.44-15.52-85.44-57.66-92.51-89.42s13.92-67.29,13.92-67.29A140.28,140.28,0,0,1,192.71,558.11Z" transform="translate(-30.72 -409.55)"/><path class="cls-5" d="M326.9,514.78v62.4a13.28,13.28,0,0,1-26.56,0V512.8a32.41,32.41,0,0,0-64.35,0h.09v64.38a13.27,13.27,0,1,1-26.54,0V512.8a58.76,58.76,0,0,1,117.26,0C326.84,513.46,326.87,514.11,326.9,514.78Z" transform="translate(-30.72 -409.55)"/><path class="cls-5" d="M461.07,533.6V471.2a13.28,13.28,0,0,0-26.55,0v64.38a32.41,32.41,0,0,1-64.35,0h.09V471.2a13.27,13.27,0,0,0-26.54,0v64.38a58.76,58.76,0,0,0,117.26,0C461,534.92,461.05,534.27,461.07,533.6Z" transform="translate(-30.72 -409.55)"/><path class="cls-5" d="M904.13,459.06a65.7,65.7,0,1,0,38.62,118.83,13.27,13.27,0,0,0,26.53-.71V533.33c0-3.42,0-5.66,0-8.58C969.23,488.47,940.41,459.06,904.13,459.06Zm0,104.31a38.62,38.62,0,1,1,38.61-38.62A38.62,38.62,0,0,1,904.13,563.37Z" transform="translate(-30.72 -409.55)"/><path class="cls-5" d="M645.14,473v.1c-.31,7.69-3.07,13.86-15,13.88h-.55c-13.11,0-26.15,6.6-33.31,24.46a23.8,23.8,0,0,0-1.7,8.87v56.45c0,7.29-6,13.71-13.25,13.72A13.28,13.28,0,0,1,568,577.18V473.09c0-7.34,6-13.76,13.35-13.73a13.28,13.28,0,0,1,13.18,12.81,58.54,58.54,0,0,1,35-11.56h2.3c.71,0,1.42,0,2.12.08a13.24,13.24,0,0,1,7.22,3.28h0A14.21,14.21,0,0,1,645.14,473Z" transform="translate(-30.72 -409.55)"/><path class="cls-5" d="M550.84,578v.1a14.15,14.15,0,0,1-3.91,9,0,0,0,0,1,0,0,13.2,13.2,0,0,1-7.22,3.27c-.69.06-1.4.08-2.12.08h-.16c-.71,0-1.42,0-2.14,0a58.75,58.75,0,0,1-57.08-44.83c-.1-.39-.2-.78-.28-1.18V433.87a13.53,13.53,0,0,1,12.33-13.65,13.25,13.25,0,0,1,14.2,13.23v27.46h32.72a13.54,13.54,0,0,1,13.65,12.33,13.29,13.29,0,0,1-13.24,14.21H504.44v49.24A23.11,23.11,0,0,0,508,549.16a32.39,32.39,0,0,0,27.31,15h.55C547.78,564.12,550.54,570.29,550.84,578Z" transform="translate(-30.72 -409.55)"/><path class="cls-5" d="M778.26,578v.1a14.15,14.15,0,0,1-3.91,9,0,0,0,0,1,0,0,13.2,13.2,0,0,1-7.22,3.27c-.69.06-1.4.08-2.11.08h-.17c-.71,0-1.42,0-2.13,0a58.75,58.75,0,0,1-57.09-44.83c-.1-.39-.2-.78-.28-1.18V433.87a13.54,13.54,0,0,1,12.33-13.65,13.27,13.27,0,0,1,14.21,13.23v27.46h32.71a13.54,13.54,0,0,1,13.65,12.33A13.27,13.27,0,0,1,765,487.45H731.87v49.24a23.1,23.1,0,0,0,3.51,12.47,32.39,32.39,0,0,0,27.32,15h.54C775.2,564.12,778,570.29,778.26,578Z" transform="translate(-30.72 -409.55)"/><circle class="cls-5" cx="644.51" cy="17.45" r="17.45"/><path class="cls-5" d="M688.51,472.63V577.17a13.27,13.27,0,0,1-26.54,0V472.63a13.27,13.27,0,1,1,26.54,0Z" transform="translate(-30.72 -409.55)"/><path class="cls-5" d="M821.62,472.63V577.17a13.27,13.27,0,1,1-26.54,0V472.63a13.27,13.27,0,0,1,26.54,0Z" transform="translate(-30.72 -409.55)"/><circle class="cls-5" cx="777.61" cy="17.45" r="17.45"/></svg>