<svg id="Layer_1" data-name="Layer 1" xmlns="http://www.w3.org/2000/svg" viewBox="0 0 982.52 233.94"><defs><style>.cls-1{fill:#25403e;}</style></defs><path class="cls-1" d="M160.51,519.12v80.69a17.17,17.17,0,0,1-34.34,0V516.56a41.91,41.91,0,0,0-83.22,0h.11v83.25a17.16,17.16,0,0,1-34.32,0V516.56a76,76,0,0,1,151.64,0C160.44,517.4,160.47,518.25,160.51,519.12Z" transform="translate(-8.74 -383.03)"/><path class="cls-1" d="M334,543.45v-80.7a17.17,17.17,0,0,0-34.33,0V546a41.91,41.91,0,0,1-83.22,0h.1V462.75a17.16,17.16,0,1,0-34.31,0V546a76,76,0,0,0,151.64,0C334,545.16,334,544.31,334,543.45Z" transform="translate(-8.74 -383.03)"/><path class="cls-1" d="M907,447.05a85,85,0,1,0,50,153.68,17.16,17.16,0,0,0,34.3-.92v-56.7c0-4.43,0-7.33,0-11.1C991.21,485.09,953.93,447.05,907,447.05ZM907,582a49.94,49.94,0,1,1,49.93-50A49.95,49.95,0,0,1,907,582Z" transform="translate(-8.74 -383.03)"/><path class="cls-1" d="M572.08,465v.13c-.4,9.95-4,17.93-19.44,17.95h-.7c-17,0-33.82,8.54-43.07,31.63a30.67,30.67,0,0,0-2.21,11.47v73c0,9.43-7.7,17.73-17.14,17.74a17.19,17.19,0,0,1-17.18-17.16V465.2c0-9.49,7.77-17.8,17.26-17.75a17.18,17.18,0,0,1,17,16.56,75.71,75.71,0,0,1,45.29-15c.92,0,1.84,0,2.76,0h.22c.91,0,1.83,0,2.74.11a17,17,0,0,1,9.33,4.24h0A18.43,18.43,0,0,1,572.08,465Z" transform="translate(-8.74 -383.03)"/><path class="cls-1" d="M450.13,600.86V601a18.33,18.33,0,0,1-5.07,11.61,0,0,0,0,1,0,0,17.12,17.12,0,0,1-9.33,4.24c-.9.07-1.82.1-2.74.1h-.22c-.92,0-1.84,0-2.76,0a76,76,0,0,1-73.83-58c-.12-.5-.25-1-.36-1.53v-143c0-9.1,6.87-17,15.95-17.66a17.18,17.18,0,0,1,18.37,17.12v35.51h42.31c9.1,0,17,6.86,17.65,15.95A17.16,17.16,0,0,1,433,483.77H390.12v63.67a29.9,29.9,0,0,0,4.55,16.14A41.9,41.9,0,0,0,430,582.9h.71C446.16,582.92,449.73,590.91,450.13,600.86Z" transform="translate(-8.74 -383.03)"/><path class="cls-1" d="M744.24,600.86V601a18.33,18.33,0,0,1-5.07,11.61,0,0,0,0,1,0,0,17.12,17.12,0,0,1-9.33,4.24c-.9.07-1.82.1-2.74.1h-.22c-.92,0-1.84,0-2.76,0a76,76,0,0,1-73.83-58c-.12-.5-.25-1-.36-1.53v-143c0-9.1,6.87-17,16-17.66a17.18,17.18,0,0,1,18.37,17.12v35.51h42.31c9.1,0,17,6.86,17.65,15.95a17.16,17.16,0,0,1-17.11,18.37H684.23v63.67a29.9,29.9,0,0,0,4.55,16.14A41.9,41.9,0,0,0,724.1,582.9h.71C740.27,582.92,743.84,590.91,744.24,600.86Z" transform="translate(-8.74 -383.03)"/><circle class="cls-1" cx="602.26" cy="22.57" r="22.57"/><path class="cls-1" d="M628.17,464.61v135.2a17.17,17.17,0,0,1-34.33,0V464.61a17.17,17.17,0,0,1,34.33,0Z" transform="translate(-8.74 -383.03)"/><path class="cls-1" d="M800.3,464.61v135.2a17.16,17.16,0,0,1-34.32,0V464.61a17.16,17.16,0,1,1,34.32,0Z" transform="translate(-8.74 -383.03)"/><circle class="cls-1" cx="774.38" cy="22.57" r="22.57"/></svg>